<svg width="48" height="48" viewBox="0 0 48 48" fill="none" xmlns="http://www.w3.org/2000/svg">
<path d="M0 0H40C44.4183 0 48 3.58172 48 8V40C48 44.4183 44.4183 48 40 48H0V0Z" fill="#9654F4"/>
<path d="M29 16.25H27.75V15C27.75 14.8011 27.671 14.6103 27.5303 14.4697C27.3897 14.329 27.1989 14.25 27 14.25C26.8011 14.25 26.6103 14.329 26.4697 14.4697C26.329 14.6103 26.25 14.8011 26.25 15V16.25H21.75V15C21.75 14.8011 21.671 14.6103 21.5303 14.4697C21.3897 14.329 21.1989 14.25 21 14.25C20.8011 14.25 20.6103 14.329 20.4697 14.4697C20.329 14.6103 20.25 14.8011 20.25 15V16.25H19C18.2707 16.25 17.5712 16.5397 17.0555 17.0555C16.5397 17.5712 16.25 18.2707 16.25 19V30C16.25 30.7293 16.5397 31.4288 17.0555 31.9445C17.5712 32.4603 18.2707 32.75 19 32.75H29C29.7293 32.75 30.4288 32.4603 30.9445 31.9445C31.4603 31.4288 31.75 30.7293 31.75 30V19C31.75 18.2707 31.4603 17.5712 30.9445 17.0555C30.4288 16.5397 29.7293 16.25 29 16.25ZM19 17.75H20.25V19C20.25 19.1989 20.329 19.3897 20.4697 19.5303C20.6103 19.671 20.8011 19.75 21 19.75C21.1989 19.75 21.3897 19.671 21.5303 19.5303C21.671 19.3897 21.75 19.1989 21.75 19V17.75H26.25V19C26.25 19.1989 26.329 19.3897 26.4697 19.5303C26.6103 19.671 26.8011 19.75 27 19.75C27.1989 19.75 27.3897 19.671 27.5303 19.5303C27.671 19.3897 27.75 19.1989 27.75 19V17.75H29C29.3315 17.75 29.6495 17.8817 29.8839 18.1161C30.1183 18.3505 30.25 18.6685 30.25 19V21.75H17.75V19C17.75 18.6685 17.8817 18.3505 18.1161 18.1161C18.3505 17.8817 18.6685 17.75 19 17.75ZM29 31.25H19C18.6685 31.25 18.3505 31.1183 18.1161 30.8839C17.8817 30.6495 17.75 30.3315 17.75 30V23.25H30.25V30C30.25 30.3315 30.1183 30.6495 29.8839 30.8839C29.6495 31.1183 29.3315 31.25 29 31.25Z" fill="white"/>
</svg>
