<svg width="24" height="24" viewBox="0 0 24 24" fill="none" xmlns="http://www.w3.org/2000/svg">
<path fill-rule="evenodd" clip-rule="evenodd" d="M2 12C2 6.47715 6.47715 2 12 2C17.5228 2 22 6.47715 22 12C22 17.5228 17.5228 22 12 22C6.47715 22 2 17.5228 2 12ZM12 4C7.58172 4 4 7.58172 4 12C4 16.4183 7.58172 20 12 20C16.4183 20 20 16.4183 20 12C20 7.58172 16.4183 4 12 4Z" fill="black"/>
<path fill-rule="evenodd" clip-rule="evenodd" d="M7.99922 13.3C8.71719 13.3 9.29922 12.7179 9.29922 12C9.29922 11.282 8.71719 10.7 7.99922 10.7C7.28125 10.7 6.69922 11.282 6.69922 12C6.69922 12.7179 7.28125 13.3 7.99922 13.3Z" fill="black"/>
<path fill-rule="evenodd" clip-rule="evenodd" d="M15.9992 13.3C16.7172 13.3 17.2992 12.7179 17.2992 12C17.2992 11.282 16.7172 10.7 15.9992 10.7C15.2812 10.7 14.6992 11.282 14.6992 12C14.6992 12.7179 15.2812 13.3 15.9992 13.3Z" fill="black"/>
<path fill-rule="evenodd" clip-rule="evenodd" d="M11.9992 13.3C12.7172 13.3 13.2992 12.7179 13.2992 12C13.2992 11.282 12.7172 10.7 11.9992 10.7C11.2812 10.7 10.6992 11.282 10.6992 12C10.6992 12.7179 11.2812 13.3 11.9992 13.3Z" fill="black"/>
</svg>
